<?xml version="1.0" encoding="UTF-8"?>
<svg id="_レイヤー_1" data-name="レイヤー 1" xmlns="http://www.w3.org/2000/svg" viewBox="0 0 768 553.9">
  <defs>
    <style>
      .cls-1 {
        fill: #998450;
      }
    </style>
  </defs>
  <path class="cls-1" d="m620.91,384.9c15.44,0,28,12.56,28,28v7.64c0,15.44-12.56,28-28,28h-50.84c-19.07,0-34,8.04-34,18.3s14.93,18.3,34,18.3h166.93c15.44,0,28,12.56,28,28v9.75c0,15.44-12.56,28-28,28h-372c-15.44,0-28-12.56-28-28v-9.75c0-15.44,12.56-28,28-28h83.39c19.07,0,34-8.04,34-18.3s-14.93-18.3-34-18.3h-24.8c-15.44,0-28-12.56-28-28v-7.64c0-15.44,12.56-28,28-28h197.32m0-3h-197.32c-17.05,0-31,13.95-31,31v7.64c0,17.05,13.95,31,31,31h24.8c17.05,0,31,6.89,31,15.3s-13.95,15.3-31,15.3h-83.39c-17.05,0-31,13.95-31,31v9.75c0,17.05,13.95,31,31,31h372c17.05,0,31-13.95,31-31v-9.75c0-17.05-13.95-31-31-31h-166.93c-17.05,0-31-6.89-31-15.3s13.95-15.3,31-15.3h50.84c17.05,0,31-13.95,31-31v-7.64c0-17.05-13.95-31-31-31h0Z"/>
  <path class="cls-1" d="m178.53,3h.09s284.13,1.01,284.13,1.01c13.79.05,25.01,11.31,25.01,25.1v9.6c0,13.79-11.21,25-25,25h-27.82c-17.09,0-31,13.91-31,31v7.17c0,17.09,13.91,31,31,31h80.05c13.79,0,25,11.21,25,25v14.46c0,13.79-11.21,25-25,25H28c-13.79,0-25-11.21-25-25v-14.46c0-13.79,11.21-25,25-25h271.99c17.09,0,31-13.91,31-31v-7.17c0-17.08-13.9-31.07-30.98-31.19l-121.36-.83c-13.8-.09-25.02-11.4-25.02-25.19v-9.6c0-6.63,2.6-12.88,7.31-17.59,4.71-4.71,10.96-7.31,17.59-7.31h0M178.53,0c-15.36,0-27.9,12.53-27.9,27.9v9.6c0,15.4,12.6,28.09,28,28.19l121.36.83c15.4.11,28,12.79,28,28.19v7.17c0,15.4-12.6,28-28,28H28c-15.4,0-28,12.6-28,28v14.46c0,15.4,12.6,28,28,28h487c15.4,0,28-12.6,28-28v-14.46c0-15.4-12.6-28-28-28h-80.05c-15.4,0-28-12.6-28-28v-7.17c0-15.4,12.6-28,28-28h27.82c15.4,0,28-12.6,28-28v-9.6c0-15.4-12.6-28.05-28-28.1L178.63,0s-.07,0-.1,0h0Z"/>
</svg>